# xmcd CD database file
#
# Track frame offsets:
#	150
#	24582
#	54901
#	83649
#	113065
#	130367
#	145256
#	167595
#	178642
#	189793
#	211200
#	223874
#	244315
#	263994
#	276128
#	309366
#	333681
#
# Disc length: 4705 seconds
#
# Revision: 0
# Processed by: cddbd v1.5.2PL0 Copyright (c) Steve Scherf et al.
# Submitted via: CDex 1.70beta2
#
DISCID=f5125f11
DTITLE=Brubeck, Dave - The Dave Brubeck Quartet
DYEAR=1900
DGENRE=Jazz
TTITLE0=Take Five
TTITLE1=Blue Rondo A La Turk
TTITLE2=Gone With The Wind
TTITLE3=Georgia On My Mind
TTITLE4=The Waltz
TTITLE5=When I Was Young
TTITLE6=I'm Old Fashioned
TTITLE7=You'd Be So Nice To Come Home To
TTITLE8=Ol' Man River
TTITLE9=When You Wish Upon A Star
TTITLE10=Love Is Here To Stay
TTITLE11=Basin' Street Blues
TTITLE12=Everybody's Jumpin'
TTITLE13=They Say It's Wonderful
TTITLE14=Strange Meadow Lark
TTITLE15=Three To Get Ready
TTITLE16=Pick Up Sticks
EXTD=
EXTT0=
EXTT1=
EXTT2=
EXTT3=
EXTT4=
EXTT5=
EXTT6=
EXTT7=
EXTT8=
EXTT9=
EXTT10=
EXTT11=
EXTT12=
EXTT13=
EXTT14=
EXTT15=
EXTT16=
PLAYORDER=
